<mxfile host="app.diagrams.net" modified="2022-11-14T11:31:17.366Z" agent="5.0 (Macintosh; Intel Mac OS X 10_15_7) AppleWebKit/537.36 (KHTML, like Gecko) Chrome/107.0.0.0 Safari/537.36" etag="VnY81w45CjnC5rtrjOmM" version="20.5.3" type="github">
  <diagram id="kpp0p4vaVyjLrGLZzNB3" name="simple gitflow">
    <mxGraphModel dx="1319" dy="852" grid="1" gridSize="10" guides="1" tooltips="1" connect="1" arrows="1" fold="1" page="1" pageScale="1" pageWidth="850" pageHeight="1100" math="0" shadow="0">
      <root>
        <mxCell id="0" />
        <mxCell id="1" parent="0" />
        <mxCell id="JxC9IEEVYPg9Gp5Ud_OF-79" style="edgeStyle=orthogonalEdgeStyle;rounded=0;orthogonalLoop=1;jettySize=auto;html=1;exitX=0.5;exitY=1;exitDx=0;exitDy=0;entryX=0.5;entryY=0;entryDx=0;entryDy=0;noEdgeStyle=1;align=left;" parent="1" source="JxC9IEEVYPg9Gp5Ud_OF-74" target="JxC9IEEVYPg9Gp5Ud_OF-77" edge="1">
          <mxGeometry relative="1" as="geometry" />
        </mxCell>
        <mxCell id="XVOhkNCDuT8Im4PqYky6-67" value="" style="edgeStyle=orthogonalEdgeStyle;rounded=0;orthogonalLoop=1;jettySize=auto;html=1;endArrow=blockThin;endFill=1;align=center;shape=link;" edge="1" parent="1" source="JxC9IEEVYPg9Gp5Ud_OF-74" target="XVOhkNCDuT8Im4PqYky6-66">
          <mxGeometry relative="1" as="geometry" />
        </mxCell>
        <mxCell id="JxC9IEEVYPg9Gp5Ud_OF-74" value="PLANNING&lt;br&gt;" style="whiteSpace=wrap;html=1;align=center;" parent="1" vertex="1">
          <mxGeometry x="481" y="230" width="100" height="40" as="geometry" />
        </mxCell>
        <mxCell id="JxC9IEEVYPg9Gp5Ud_OF-81" value="" style="edgeStyle=orthogonalEdgeStyle;rounded=0;orthogonalLoop=1;jettySize=auto;html=1;noEdgeStyle=1;align=center;" parent="1" source="JxC9IEEVYPg9Gp5Ud_OF-77" target="JxC9IEEVYPg9Gp5Ud_OF-80" edge="1">
          <mxGeometry relative="1" as="geometry" />
        </mxCell>
        <mxCell id="XVOhkNCDuT8Im4PqYky6-58" value="" style="edgeStyle=orthogonalEdgeStyle;rounded=0;orthogonalLoop=1;jettySize=auto;html=1;endArrow=blockThin;endFill=1;align=left;textOpacity=30;shape=link;" edge="1" parent="1" source="JxC9IEEVYPg9Gp5Ud_OF-77" target="XVOhkNCDuT8Im4PqYky6-57">
          <mxGeometry relative="1" as="geometry" />
        </mxCell>
        <mxCell id="JxC9IEEVYPg9Gp5Ud_OF-77" value="ANALYSIS" style="whiteSpace=wrap;html=1;align=center;" parent="1" vertex="1">
          <mxGeometry x="663" y="352" width="100" height="40" as="geometry" />
        </mxCell>
        <mxCell id="JxC9IEEVYPg9Gp5Ud_OF-83" style="edgeStyle=orthogonalEdgeStyle;rounded=0;orthogonalLoop=1;jettySize=auto;html=1;noEdgeStyle=1;align=left;" parent="1" source="JxC9IEEVYPg9Gp5Ud_OF-80" target="JxC9IEEVYPg9Gp5Ud_OF-82" edge="1">
          <mxGeometry relative="1" as="geometry" />
        </mxCell>
        <mxCell id="XVOhkNCDuT8Im4PqYky6-51" value="" style="edgeStyle=orthogonalEdgeStyle;rounded=0;orthogonalLoop=1;jettySize=auto;html=1;endArrow=blockThin;endFill=1;align=left;shape=link;" edge="1" parent="1" source="JxC9IEEVYPg9Gp5Ud_OF-80" target="XVOhkNCDuT8Im4PqYky6-50">
          <mxGeometry relative="1" as="geometry" />
        </mxCell>
        <mxCell id="JxC9IEEVYPg9Gp5Ud_OF-80" value="DESIGN&lt;br&gt;" style="whiteSpace=wrap;html=1;align=center;" parent="1" vertex="1">
          <mxGeometry x="593" y="565" width="100" height="40" as="geometry" />
        </mxCell>
        <mxCell id="JxC9IEEVYPg9Gp5Ud_OF-85" value="" style="edgeStyle=orthogonalEdgeStyle;rounded=0;orthogonalLoop=1;jettySize=auto;html=1;noEdgeStyle=1;align=center;" parent="1" source="JxC9IEEVYPg9Gp5Ud_OF-82" target="JxC9IEEVYPg9Gp5Ud_OF-84" edge="1">
          <mxGeometry relative="1" as="geometry" />
        </mxCell>
        <mxCell id="XVOhkNCDuT8Im4PqYky6-49" value="" style="edgeStyle=orthogonalEdgeStyle;rounded=0;orthogonalLoop=1;jettySize=auto;html=1;endArrow=blockThin;endFill=1;align=left;shape=link;" edge="1" parent="1" source="JxC9IEEVYPg9Gp5Ud_OF-82" target="XVOhkNCDuT8Im4PqYky6-48">
          <mxGeometry relative="1" as="geometry" />
        </mxCell>
        <mxCell id="JxC9IEEVYPg9Gp5Ud_OF-82" value="IMPLEMENTATION&lt;br&gt;" style="whiteSpace=wrap;html=1;align=center;" parent="1" vertex="1">
          <mxGeometry x="369" y="565" width="120" height="40" as="geometry" />
        </mxCell>
        <mxCell id="XVOhkNCDuT8Im4PqYky6-40" value="" style="edgeStyle=orthogonalEdgeStyle;rounded=0;orthogonalLoop=1;jettySize=auto;html=1;endArrow=blockThin;endFill=1;align=left;labelBackgroundColor=default;shape=link;" edge="1" parent="1" source="JxC9IEEVYPg9Gp5Ud_OF-84">
          <mxGeometry relative="1" as="geometry">
            <mxPoint x="234.5" y="376" as="targetPoint" />
          </mxGeometry>
        </mxCell>
        <mxCell id="JxC9IEEVYPg9Gp5Ud_OF-84" value="MAINTENANCE" style="whiteSpace=wrap;html=1;align=center;" parent="1" vertex="1">
          <mxGeometry x="299" y="360" width="120" height="32" as="geometry" />
        </mxCell>
        <mxCell id="JxC9IEEVYPg9Gp5Ud_OF-96" style="edgeStyle=orthogonalEdgeStyle;rounded=0;orthogonalLoop=1;jettySize=auto;html=1;exitX=0.5;exitY=0;exitDx=0;exitDy=0;noEdgeStyle=1;align=center;entryX=0;entryY=0.5;entryDx=0;entryDy=0;" parent="1" source="JxC9IEEVYPg9Gp5Ud_OF-84" target="JxC9IEEVYPg9Gp5Ud_OF-74" edge="1">
          <mxGeometry relative="1" as="geometry">
            <mxPoint x="338" y="267.9999999999999" as="sourcePoint" />
            <mxPoint x="470" y="240" as="targetPoint" />
          </mxGeometry>
        </mxCell>
        <mxCell id="XVOhkNCDuT8Im4PqYky6-45" value="&lt;ul style=&quot;line-height: 140%;&quot;&gt;&lt;li&gt;Maintain system: Small patches, repairs, and updates&lt;br&gt;&lt;/li&gt;&lt;li&gt;&amp;nbsp;Enhance system: Small upgrades or enhancements to expand system capabilities&lt;br&gt;&lt;/li&gt;&lt;li&gt;Support users: Help desk and/or support team&lt;br&gt;&lt;/li&gt;&lt;/ul&gt;" style="whiteSpace=wrap;html=1;align=left;fillColor=#fff2cc;strokeColor=#d6b656;" vertex="1" parent="1">
          <mxGeometry x="90" y="303" width="179" height="164" as="geometry" />
        </mxCell>
        <mxCell id="XVOhkNCDuT8Im4PqYky6-48" value="&lt;ul style=&quot;line-height: 140%;&quot;&gt;&lt;li&gt;Construct software components&lt;/li&gt;&lt;li&gt;&amp;nbsp;Verify and test Convert data&lt;/li&gt;&lt;li&gt;Train users and document the system&lt;/li&gt;&lt;li&gt;&amp;nbsp;Install the system&lt;/li&gt;&lt;/ul&gt;" style="whiteSpace=wrap;html=1;align=left;fillColor=#fff2cc;strokeColor=#d6b656;" vertex="1" parent="1">
          <mxGeometry x="334.5" y="630" width="189" height="125" as="geometry" />
        </mxCell>
        <mxCell id="XVOhkNCDuT8Im4PqYky6-50" value="&lt;ul style=&quot;line-height: 140%;&quot;&gt;&lt;li&gt;Design and integrate the network&lt;/li&gt;&lt;li&gt;Design the application architecture&lt;/li&gt;&lt;li&gt;Design the user interfaces&lt;/li&gt;&lt;li&gt;Design the system interfaces&lt;/li&gt;&lt;li&gt;Design and integrate the database&lt;/li&gt;&lt;li&gt;Prototype for design details&lt;/li&gt;&lt;li&gt;Design and integrate system controls&lt;/li&gt;&lt;/ul&gt;" style="whiteSpace=wrap;html=1;align=left;fillColor=#fff2cc;strokeColor=#d6b656;" vertex="1" parent="1">
          <mxGeometry x="534.5" y="630" width="217" height="195" as="geometry" />
        </mxCell>
        <mxCell id="XVOhkNCDuT8Im4PqYky6-57" value="&lt;ul style=&quot;line-height: 140%;&quot;&gt;&lt;li&gt;Gather information to learn problem domain&lt;/li&gt;&lt;li&gt;Define system requirements&lt;/li&gt;&lt;li&gt;Prioritize requirements&lt;/li&gt;&lt;li&gt;Generate and evaluate alternatives&lt;/li&gt;&lt;li&gt;Review recommendations with management&lt;/li&gt;&lt;/ul&gt;" style="whiteSpace=wrap;html=1;align=left;fillColor=#fff2cc;strokeColor=#d6b656;" vertex="1" parent="1">
          <mxGeometry x="790" y="303" width="257" height="138" as="geometry" />
        </mxCell>
        <mxCell id="XVOhkNCDuT8Im4PqYky6-66" value="&lt;ul style=&quot;line-height: 150%;&quot;&gt;&lt;li&gt;Define business problem and scope&lt;br&gt;&lt;/li&gt;&lt;li&gt;Produce detailed project schedule&lt;br&gt;&lt;/li&gt;&lt;li&gt;Project initial and feasibility studies&lt;br&gt;&lt;/li&gt;&lt;ul&gt;&lt;li&gt;Economic, organizational, technical, resource, and schedule&lt;br&gt;&lt;/li&gt;&lt;/ul&gt;&lt;li&gt;Staff the project (resource management)&lt;br&gt;&lt;/li&gt;&lt;li&gt;Launch project -&amp;gt; official announcement&lt;/li&gt;&lt;/ul&gt;" style="whiteSpace=wrap;html=1;align=left;fillColor=#fff2cc;strokeColor=#d6b656;" vertex="1" parent="1">
          <mxGeometry x="386.5" y="70" width="289" height="140" as="geometry" />
        </mxCell>
        <mxCell id="XVOhkNCDuT8Im4PqYky6-75" value="&lt;font style=&quot;font-size: 30px;&quot; color=&quot;#000000&quot;&gt;SDLC&lt;/font&gt;" style="text;html=1;align=center;verticalAlign=middle;resizable=0;points=[];autosize=1;strokeColor=none;fillColor=none;fontColor=#97D077;fontStyle=1" vertex="1" parent="1">
          <mxGeometry x="476" y="396" width="110" height="50" as="geometry" />
        </mxCell>
      </root>
    </mxGraphModel>
  </diagram>
</mxfile>
